<svg width="1024" height="1024" viewBox="0 0 1024 1024" fill="none" xmlns="http://www.w3.org/2000/svg">
    <path
        d="M847 401.648C834.404 579.599 654.059 790.033 510.361 946.993C506.308 951.419 499.43 951.486 495.323 947.109C361.338 804.3 177 578.283 177 401.648C177 221.665 320.666 68 510.648 68C700.631 68 847 221.665 847 401.648Z"
        fill="rgba(10,10,10,0.712)" />
    <path
        d="M224.534 228.241C212.286 260.209 438.24 386.598 492.594 409.839C496.887 411.674 510.579 412.6 514.925 410.898C568.541 389.9 803.215 262.392 800.328 233.531L805.501 241.29L808.087 246.463L810.674 251.636C810.674 251.636 807.415 253.148 804.849 255.627L758.905 300.008C757.051 301.799 756.714 304.701 757.995 306.95C833.649 439.771 708.334 604.131 549.908 512.97C547.03 511.315 543.256 512.487 541.984 515.59L508.454 597.411C506.645 601.823 500.549 601.963 498.549 597.638L462.845 520.486C461.521 517.623 458.035 516.524 455.26 517.954C310.76 592.428 181.881 449.996 255.162 306.966C256.319 304.705 255.892 301.872 254.033 300.162L208.038 261.981C208.038 259.558 216.533 240.892 224.534 228.241C224.879 227.342 225.412 226.517 226.143 225.771C225.611 226.563 225.074 227.388 224.534 228.241Z"
        fill="white" />
    <circle cx="373.568" cy="409.408" r="103.457" fill="#FFB71D" />
    <path
        d="M450.809 394.135C449.704 382.402 446.027 371.056 440.039 360.906C434.05 350.757 425.898 342.051 416.162 335.411C406.426 328.77 395.346 324.358 383.711 322.487C372.075 320.616 360.17 321.333 348.844 324.587C337.517 327.841 327.047 333.552 318.179 341.314C309.31 349.075 302.262 358.696 297.535 369.491C292.809 380.287 290.52 391.991 290.832 403.772C291.144 415.553 294.049 427.12 299.34 437.65L329.725 422.381C326.678 416.317 325.005 409.656 324.826 402.872C324.646 396.087 325.964 389.347 328.686 383.13C331.408 376.913 335.467 371.373 340.574 366.903C345.681 362.434 351.711 359.145 358.233 357.271C364.756 355.397 371.612 354.984 378.312 356.061C385.013 357.139 391.394 359.68 397 363.504C402.607 367.328 407.302 372.341 410.75 378.186C414.199 384.032 416.317 390.565 416.953 397.322L450.809 394.135Z"
        fill="#323640" />
    <circle cx="103.457" cy="103.457" r="103.457" transform="matrix(-1 0 0 1 756.358 305.95)" fill="#FFB71D" />
    <path
        d="M575.662 394.134C576.766 382.401 580.444 371.056 586.432 360.906C592.421 350.756 600.573 342.051 610.309 335.41C620.045 328.77 631.125 324.357 642.76 322.486C654.396 320.616 666.3 321.333 677.627 324.587C688.954 327.841 699.424 333.552 708.292 341.313C717.16 349.074 724.209 358.695 728.935 369.491C733.662 380.286 735.951 391.991 735.639 403.771C735.327 415.552 732.422 427.119 727.13 437.649L696.745 422.381C699.792 416.317 701.465 409.655 701.645 402.871C701.825 396.087 700.507 389.346 697.785 383.13C695.063 376.913 691.004 371.372 685.897 366.903C680.79 362.433 674.76 359.144 668.237 357.27C661.715 355.397 654.859 354.984 648.158 356.061C641.458 357.138 635.077 359.679 629.47 363.504C623.864 367.328 619.169 372.341 615.72 378.186C612.272 384.031 610.154 390.565 609.518 397.321L575.662 394.134Z"
        fill="#323640" />
</svg>