<svg width="350" height="350" viewBox="0 0 350 350" fill="none" xmlns="http://www.w3.org/2000/svg">
<path d="M350 175C350 271.65 271.65 350 175 350C78.3502 350 0 271.65 0 175C0 78.3502 78.3502 0 175 0C271.65 0 350 78.3502 350 175Z" fill="#FFF3D1"/>
<path d="M301 173.25C301 211.91 269.66 243.25 231 243.25C192.34 243.25 161 211.91 161 173.25C161 134.59 192.34 103.25 231 103.25C269.66 103.25 301 134.59 301 173.25ZM188.391 173.25C188.391 196.782 207.468 215.859 231 215.859C254.532 215.859 273.609 196.782 273.609 173.25C273.609 149.718 254.532 130.641 231 130.641C207.468 130.641 188.391 149.718 188.391 173.25Z" fill="#F29D41"/>
<path fill-rule="evenodd" clip-rule="evenodd" d="M58.3894 106.768C56.3238 109.806 56 118.805 56 173.059C56 232.566 56.1535 236.027 58.9403 239.569C61.8607 243.278 62.1093 243.305 93.0855 243.235C123.835 243.169 124.405 243.106 132.175 238.947C146.289 231.393 155.75 216.023 155.75 200.646C155.75 197.079 154.622 192.499 153.244 190.47C150.379 178.421 128.225 177.892 120.759 183.284C118.864 184.653 113.157 192.148 108.077 199.939C102.996 207.729 96.0811 216.166 92.7095 218.685C86.9379 222.996 75.264 226.508 73.3304 224.515C72.8485 224.017 74.1729 221.276 76.2753 218.423C84.3735 207.438 85.6304 203.216 84.5868 190.494C83.7888 180.749 88.5108 177.987 90.6056 175.597C92.9735 172.899 92.9689 172.497 90.5288 169.717C88.3313 167.213 83.6292 165.017 84.4963 155.154C85.6104 142.484 84.3858 138.343 76.2753 127.341C74.1729 124.488 72.9161 121.676 73.4839 121.092C75.2349 119.284 88.6673 123.795 93.9802 127.972C96.7532 130.155 103.137 138.249 108.168 145.964C113.198 153.679 118.864 161.111 120.759 162.48C128.225 167.871 148.844 166.552 153.244 155.293C158.643 147.346 154.935 128.957 145.688 117.817C142.778 114.31 136.81 109.599 132.425 107.346C124.622 103.335 123.792 103.25 92.6159 103.25C61.4556 103.25 60.7266 103.324 58.3894 106.768Z" fill="#F29D41"/>
</svg>
