<svg id="visual" viewBox="0 0 900 600" width="900" height="600" xmlns="http://www.w3.org/2000/svg"
    xmlns:xlink="http://www.w3.org/1999/xlink" version="1.1">
    <path
        d="M0 73L15 69C30 65 60 57 90 59C120 61 150 73 180 73C210 73 240 61 270 56C300 51 330 53 360 56C390 59 420 63 450 68C480 73 510 79 540 83C570 87 600 89 630 89C660 89 690 87 720 82C750 77 780 69 810 64C840 59 870 57 885 56L900 55L900 0L885 0C870 0 840 0 810 0C780 0 750 0 720 0C690 0 660 0 630 0C600 0 570 0 540 0C510 0 480 0 450 0C420 0 390 0 360 0C330 0 300 0 270 0C240 0 210 0 180 0C150 0 120 0 90 0C60 0 30 0 15 0L0 0Z"
        fill="#d67286"></path>
    <path
        d="M0 229L15 232C30 235 60 241 90 244C120 247 150 247 180 240C210 233 240 219 270 208C300 197 330 189 360 186C390 183 420 185 450 195C480 205 510 223 540 231C570 239 600 237 630 236C660 235 690 235 720 225C750 215 780 195 810 198C840 201 870 227 885 240L900 253L900 53L885 54C870 55 840 57 810 62C780 67 750 75 720 80C690 85 660 87 630 87C600 87 570 85 540 81C510 77 480 71 450 66C420 61 390 57 360 54C330 51 300 49 270 54C240 59 210 71 180 71C150 71 120 59 90 57C60 55 30 63 15 67L0 71Z"
        fill="#cf5f76"></path>
    <path
        d="M0 277L15 280C30 283 60 289 90 292C120 295 150 295 180 288C210 281 240 267 270 255C300 243 330 233 360 229C390 225 420 227 450 237C480 247 510 265 540 272C570 279 600 275 630 275C660 275 690 279 720 269C750 259 780 235 810 239C840 243 870 275 885 291L900 307L900 251L885 238C870 225 840 199 810 196C780 193 750 213 720 223C690 233 660 233 630 234C600 235 570 237 540 229C510 221 480 203 450 193C420 183 390 181 360 184C330 187 300 195 270 206C240 217 210 231 180 238C150 245 120 245 90 242C60 239 30 233 15 230L0 227Z"
        fill="#c74b65"></path>
    <path
        d="M0 349L15 352C30 355 60 361 90 367C120 373 150 379 180 374C210 369 240 353 270 339C300 325 330 313 360 314C390 315 420 329 450 343C480 357 510 371 540 373C570 375 600 365 630 363C660 361 690 367 720 361C750 355 780 337 810 343C840 349 870 379 885 394L900 409L900 305L885 289C870 273 840 241 810 237C780 233 750 257 720 267C690 277 660 273 630 273C600 273 570 277 540 270C510 263 480 245 450 235C420 225 390 223 360 227C330 231 300 241 270 253C240 265 210 279 180 286C150 293 120 293 90 290C60 287 30 281 15 278L0 275Z"
        fill="#be3455"></path>
    <path
        d="M0 493L15 492C30 491 60 489 90 488C120 487 150 487 180 485C210 483 240 479 270 483C300 487 330 499 360 503C390 507 420 503 450 497C480 491 510 483 540 482C570 481 600 487 630 494C660 501 690 509 720 507C750 505 780 493 810 493C840 493 870 505 885 511L900 517L900 407L885 392C870 377 840 347 810 341C780 335 750 353 720 359C690 365 660 359 630 361C600 363 570 373 540 371C510 369 480 355 450 341C420 327 390 313 360 312C330 311 300 323 270 337C240 351 210 367 180 372C150 377 120 371 90 365C60 359 30 353 15 350L0 347Z"
        fill="#ad304e"></path>
    <path
        d="M0 529L15 529C30 529 60 529 90 529C120 529 150 529 180 529C210 529 240 529 270 532C300 535 330 541 360 542C390 543 420 539 450 538C480 537 510 539 540 541C570 543 600 545 630 547C660 549 690 551 720 550C750 549 780 545 810 545C840 545 870 549 885 551L900 553L900 515L885 509C870 503 840 491 810 491C780 491 750 503 720 505C690 507 660 499 630 492C600 485 570 479 540 480C510 481 480 489 450 495C420 501 390 505 360 501C330 497 300 485 270 481C240 477 210 481 180 483C150 485 120 485 90 486C60 487 30 489 15 490L0 491Z"
        fill="#9c2b46"></path>
    <path
        d="M0 601L15 601C30 601 60 601 90 601C120 601 150 601 180 601C210 601 240 601 270 601C300 601 330 601 360 601C390 601 420 601 450 601C480 601 510 601 540 601C570 601 600 601 630 601C660 601 690 601 720 601C750 601 780 601 810 601C840 601 870 601 885 601L900 601L900 551L885 549C870 547 840 543 810 543C780 543 750 547 720 548C690 549 660 547 630 545C600 543 570 541 540 539C510 537 480 535 450 536C420 537 390 541 360 540C330 539 300 533 270 530C240 527 210 527 180 527C150 527 120 527 90 527C60 527 30 527 15 527L0 527Z"
        fill="#8b273f"></path>
</svg>